<?xml version="1.0" encoding="UTF-8"?><svg id="Layer_2" xmlns="http://www.w3.org/2000/svg" xmlns:xlink="http://www.w3.org/1999/xlink" viewBox="0 0 712.39 880.2"><defs><clipPath id="clippath"><rect width="712.39" height="880.2" style="fill:none;"/></clipPath></defs><g id="Layer_1-2"><g id="Group_776"><g style="clip-path:url(#clippath);"><g id="Group_776-2"><path id="Path_1498" d="m356.2,245.56c-107.44,0-194.54,87.1-194.54,194.54s87.1,194.54,194.54,194.54,194.54-87.1,194.54-194.54c-.13-107.39-87.15-194.41-194.54-194.54m0,428.35c-129.13,0-233.81-104.68-233.81-233.82,0-129.13,104.68-233.81,233.82-233.81,129.13,0,233.81,104.68,233.81,233.81-.14,129.08-104.74,233.68-233.82,233.82" style="fill:#548eb0;"/><path id="Path_1499" d="m81.17,452.94H2.74c-1.51,0-2.74-1.23-2.74-2.74v-20.19c0-1.52,1.22-2.75,2.74-2.76h78.43c1.52,0,2.75,1.24,2.74,2.76h0v20.19c0,1.51-1.21,2.74-2.72,2.74,0,0-.01,0-.02,0" style="fill:#548eb0;"/><path id="Path_1500" d="m709.65,452.94h-78.43c-1.51,0-2.74-1.23-2.74-2.74v-20.19c0-1.52,1.22-2.75,2.74-2.76h78.43c1.52,0,2.74,1.24,2.74,2.75v20.19c0,1.51-1.21,2.74-2.72,2.74,0,0-.01,0-.02,0" style="fill:#548eb0;"/><path id="Path_1501" d="m87.58,500.51l-77.23,13.6c-1.47.27-2.89-.7-3.16-2.17,0-.01,0-.02,0-.03l-3.51-19.9c-.27-1.47.7-2.89,2.18-3.16.02,0,.03,0,.05,0l77.24-13.63c1.48-.26,2.9.72,3.17,2.21l3.51,19.9c.27,1.49-.72,2.92-2.22,3.19,0,0,0,0-.01,0" style="fill:#548eb0;"/><path id="Path_1502" d="m706.5,391.37l-77.23,13.62c-1.48.26-2.9-.72-3.17-2.21,0,0,0-.01,0-.02l-3.51-19.9c-.27-1.47.7-2.89,2.18-3.16.02,0,.03,0,.05,0l77.23-13.62c1.49-.26,2.91.74,3.17,2.23l3.51,19.87c.27,1.49-.72,2.92-2.22,3.19,0,0,0,0-.01,0" style="fill:#548eb0;"/><path id="Path_1503" d="m102.14,546.24l-73.7,26.81c-1.4.53-2.97-.18-3.5-1.58,0-.02-.01-.03-.02-.05l-6.9-18.98c-.53-1.42.2-3,1.62-3.53,0,0,0,0,.01,0l73.7-26.81c1.42-.51,2.99.21,3.51,1.63l6.92,19c.52,1.41-.2,2.98-1.61,3.5-.01,0-.02,0-.04.01" style="fill:#548eb0;"/><path id="Path_1504" d="m692.73,331.29l-73.7,26.81c-1.41.52-2.99-.2-3.51-1.62,0,0,0,0,0-.01l-6.9-18.98c-.53-1.42.2-3,1.62-3.53,0,0,0,0,.01,0l73.7-26.81c1.42-.51,2.99.21,3.51,1.63l6.93,19c.52,1.42-.22,3-1.65,3.51,0,0,0,0,0,0" style="fill:#548eb0;"/><path id="Path_1505" d="m124.43,588.75l-67.91,39.22c-1.31.75-2.99.3-3.75-1.01l-10.11-17.5c-.75-1.31-.3-2.99,1.01-3.75l67.91-39.22c1.32-.75,3-.3,3.77,1.01l10.09,17.5c.76,1.31.31,2.98-.99,3.74,0,0,0,0-.01,0" style="fill:#548eb0;"/><path id="Path_1506" d="m668.72,274.51l-67.91,39.22c-1.31.75-2.99.3-3.75-1.01l-10.11-17.5c-.75-1.31-.3-2.99,1.01-3.75l67.91-39.22c1.32-.75,3-.3,3.77,1.01l10.09,17.5c.75,1.31.3,2.99-1.01,3.75" style="fill:#548eb0;"/><path id="Path_1507" d="m153.78,626.73l-60.08,50.39c-1.14.98-2.86.84-3.84-.3,0,0-.01-.01-.02-.02l-13-15.48c-.96-1.17-.81-2.9.34-3.88l60.08-50.4c1.16-.97,2.89-.83,3.88.32l12.98,15.49c.97,1.17.81,2.9-.34,3.88" style="fill:#548eb0;"/><path id="Path_1508" d="m635.23,222.75l-60.08,50.42c-1.16.97-2.88.81-3.86-.34l-13.02-15.49c-.96-1.16-.8-2.88.37-3.84,0,0,.01,0,.02-.01l60.05-50.42c1.18-.97,2.92-.82,3.91.34l12.96,15.46c.96,1.17.82,2.89-.32,3.88" style="fill:#548eb0;"/><path id="Path_1509" d="m189.25,659.04l-50.42,60.08c-.97,1.16-2.69,1.31-3.86.34l-15.49-13c-1.15-.97-1.3-2.68-.34-3.83,0,0,.01-.01.02-.02l50.39-60.08c.97-1.17,2.71-1.32,3.87-.35h0s15.46,12.98,15.46,12.98c1.15.98,1.31,2.71.34,3.88" style="fill:#548eb0;"/><path id="Path_1510" d="m593.22,177.6l-50.42,60.08c-.97,1.16-2.69,1.31-3.86.34l-15.49-13c-1.15-.97-1.3-2.68-.34-3.83,0,0,.01-.01.02-.02l50.39-60.08c.97-1.17,2.71-1.32,3.87-.35,0,0,0,0,0,0l15.46,12.98c1.15.98,1.31,2.71.34,3.88" style="fill:#548eb0;"/><path id="Path_1511" d="m229.81,684.7l-39.22,67.92c-.75,1.31-2.42,1.77-3.74,1.01,0,0,0,0-.01,0l-17.5-10.09c-1.31-.77-1.75-2.46-.99-3.77l39.19-67.91c.77-1.31,2.46-1.75,3.77-.99l17.48,10.09c1.31.76,1.76,2.43,1.01,3.75" style="fill:#548eb0;"/><path id="Path_1512" d="m544.06,140.44l-39.22,67.91c-.74,1.32-2.41,1.78-3.73,1.03,0,0-.02-.01-.03-.02l-17.5-10.09c-1.31-.77-1.75-2.46-.99-3.77l39.2-67.93c.77-1.31,2.45-1.76,3.77-1.01l17.48,10.11c1.31.76,1.76,2.43,1.01,3.75" style="fill:#548eb0;"/><path id="Path_1513" d="m274.21,702.93l-26.81,73.7c-.53,1.41-2.09,2.13-3.51,1.62l-19-6.9c-1.42-.52-2.15-2.09-1.63-3.51,0,0,0,0,0,0l26.81-73.67c.49-1.41,2.03-2.16,3.44-1.67.02,0,.05.02.07.03l18.98,6.9c1.42.5,2.16,2.06,1.66,3.48,0,.01,0,.02-.01.04" style="fill:#548eb0;"/><path id="Path_1514" d="m489.15,112.36l-26.8,73.7c-.53,1.41-2.09,2.14-3.51,1.63l-19-6.9c-1.42-.52-2.15-2.09-1.63-3.51,0,0,0,0,0,0l26.81-73.7c.51-1.42,2.08-2.16,3.51-1.65,0,0,0,0,0,0l18.98,6.92c1.41.5,2.16,2.05,1.66,3.46,0,.02-.01.03-.02.05" style="fill:#548eb0;"/><path id="Path_1515" d="m321.09,713.19l-13.62,77.23c-.26,1.49-1.68,2.49-3.17,2.23l-19.9-3.51c-1.48-.25-2.48-1.66-2.23-3.14,0,0,0-.02,0-.03l13.6-77.23c.27-1.49,1.69-2.49,3.19-2.24l19.91,3.5c1.49.26,2.49,1.69,2.23,3.18,0,0,0,0,0,.01" style="fill:#548eb0;"/><path id="Path_1516" d="m430.21,94.26l-13.6,77.23c-.28,1.49-1.7,2.48-3.19,2.23l-19.9-3.51c-1.48-.25-2.48-1.66-2.23-3.14,0,0,0-.02,0-.03l13.6-77.23c.28-1.49,1.7-2.48,3.19-2.23l19.9,3.49c1.49.26,2.49,1.69,2.23,3.18,0,0,0,0,0,.01" style="fill:#548eb0;"/><path id="Path_1517" d="m295.8,171.5l-13.62-77.23c-.25-1.49.74-2.9,2.23-3.17l19.9-3.51c1.47-.27,2.89.7,3.16,2.18,0,.02,0,.03,0,.05l13.64,77.23c.24,1.49-.76,2.9-2.25,3.17l-19.87,3.51c-1.49.27-2.92-.72-3.19-2.22,0,0,0,0,0-.01" style="fill:#548eb0;"/><path id="Path_1518" d="m404.92,790.42l-13.6-77.23c-.27-1.47.7-2.89,2.17-3.16.01,0,.02,0,.03,0l19.9-3.54c1.49-.26,2.91.74,3.17,2.23l13.62,77.25c.26,1.49-.74,2.91-2.23,3.17l-19.87,3.53c-1.49.26-2.92-.73-3.19-2.23" style="fill:#548eb0;"/><path id="Path_1519" d="m250.07,186.06l-26.81-73.7c-.52-1.41.2-2.99,1.62-3.51,0,0,0,0,.01,0l18.98-6.9c1.42-.53,3,.2,3.53,1.62,0,0,0,0,0,.01l26.81,73.7c.51,1.42-.21,2.99-1.63,3.51l-19,6.92c-1.42.52-3-.22-3.51-1.65,0,0,0,0,0,0" style="fill:#548eb0;"/><path id="Path_1520" d="m465.02,776.63l-26.81-73.7c-.53-1.43.2-3.01,1.63-3.53l18.98-6.87c1.41-.53,2.98.18,3.52,1.59,0,.01.01.03.02.04l26.8,73.7c.51,1.42-.22,2.98-1.63,3.51l-18.99,6.89c-1.42.51-2.99-.21-3.51-1.63" style="fill:#548eb0;"/><path id="Path_1521" d="m207.56,208.35l-39.22-67.91c-.75-1.31-.3-2.99,1.01-3.75l17.5-10.11c1.31-.75,2.99-.3,3.75,1.01l39.22,67.91c.75,1.32.3,3-1.01,3.77l-17.5,10.1c-1.31.76-2.98.31-3.74-.99,0,0,0,0,0-.01" style="fill:#548eb0;"/><path id="Path_1522" d="m521.8,752.62l-39.22-67.91c-.75-1.31-.3-2.99,1.01-3.75l17.5-10.11c1.31-.75,2.99-.3,3.75,1.01l39.22,67.91c.75,1.32.3,3-1.01,3.77l-17.5,10.09c-1.31.76-2.98.31-3.74-.99,0,0,0,0,0-.01" style="fill:#548eb0;"/><path id="Path_1523" d="m169.58,237.67l-50.42-60.08c-.97-1.16-.81-2.88.34-3.86l15.49-13c1.16-.97,2.88-.81,3.86.34l50.42,60.07c.96,1.17.81,2.9-.34,3.88l-15.46,12.98c-1.17.97-2.9.81-3.88-.34" style="fill:#548eb0;"/><path id="Path_1524" d="m573.54,719.12l-50.42-60.08c-.97-1.16-.81-2.88.34-3.86l15.49-12.98c1.15-.97,2.88-.83,3.86.32l50.42,60.08c.96,1.17.81,2.9-.34,3.88l-15.46,12.98c-1.16.98-2.9.82-3.87-.34,0,0,0,0,0,0" style="fill:#548eb0;"/><path id="Path_1525" d="m137.27,273.16l-60.08-50.42c-1.16-.97-1.31-2.69-.34-3.86l13-15.49c.97-1.15,2.68-1.3,3.83-.34,0,0,.01.01.02.02l60.08,50.39c1.17.97,1.32,2.71.35,3.87,0,0,0,0,0,0l-12.98,15.46c-.98,1.15-2.71,1.31-3.88.34" style="fill:#548eb0;"/><path id="Path_1526" d="m618.71,677.13l-60.07-50.4c-1.17-.97-1.33-2.71-.36-3.88l13.02-15.49c.97-1.15,2.68-1.3,3.83-.34,0,0,.01.01.02.02l60.07,50.39c1.15.99,1.29,2.71.32,3.88l-12.96,15.49c-.99,1.15-2.71,1.29-3.88.32" style="fill:#548eb0;"/><path id="Path_1527" d="m111.59,313.71l-67.92-39.22c-1.31-.75-1.77-2.42-1.01-3.74,0,0,0,0,0-.01l10.09-17.5c.77-1.31,2.46-1.75,3.77-.99l67.91,39.19c1.31.77,1.76,2.45,1.01,3.77l-10.11,17.48c-.76,1.31-2.43,1.76-3.75,1.01" style="fill:#548eb0;"/><path id="Path_1528" d="m655.87,627.95l-67.91-39.22c-1.32-.76-1.77-2.45-1.01-3.77l10.09-17.48c.77-1.31,2.45-1.76,3.77-1.01l67.91,39.22c1.31.77,1.76,2.45,1.01,3.77l-10.11,17.48c-.76,1.31-2.43,1.76-3.75,1.01" style="fill:#548eb0;"/><path id="Path_1529" d="m93.36,358.11l-73.7-26.81c-1.41-.53-2.14-2.09-1.63-3.51l6.9-18.98c.51-1.42,2.07-2.16,3.49-1.66,0,0,.02,0,.02,0l73.7,26.81c1.42.51,2.16,2.08,1.65,3.51,0,0,0,0,0,0l-6.92,18.98c-.51,1.42-2.07,2.16-3.49,1.66,0,0-.01,0-.02,0" style="fill:#548eb0;"/><path id="Path_1530" d="m683.95,573.08l-73.7-26.81c-1.42-.52-2.14-2.09-1.63-3.51l6.87-19c.53-1.42,2.11-2.15,3.53-1.63l73.68,26.81c1.42.51,2.16,2.07,1.66,3.49,0,0,0,.01,0,.02l-6.92,18.98c-.51,1.42-2.07,2.15-3.49,1.65" style="fill:#548eb0;"/><path id="Path_1531" d="m83.12,404.99l-77.23-13.62c-1.49-.26-2.49-1.68-2.23-3.17,0,0,0,0,0,0l3.51-19.9c.25-1.48,1.66-2.48,3.14-2.23,0,0,.02,0,.03,0l77.23,13.62c1.49.26,2.49,1.68,2.23,3.17l-3.49,19.9c-.26,1.49-1.69,2.49-3.18,2.23,0,0,0,0-.01,0" style="fill:#548eb0;"/><path id="Path_1532" d="m702.05,514.13l-77.23-13.6c-1.49-.28-2.48-1.7-2.23-3.19l3.5-19.92c.26-1.48,1.68-2.47,3.16-2.21,0,0,0,0,0,0l77.23,13.62c1.48.26,2.48,1.66,2.23,3.15l-3.49,19.92c-.27,1.49-1.7,2.49-3.19,2.23" style="fill:#548eb0;"/><path id="Path_1533" d="m346.11,0h20.19c1.51,0,2.74,1.21,2.74,2.72,0,0,0,.01,0,.02v162.32c.01,1.51-1.2,2.75-2.71,2.76,0,0-.01,0-.02,0h-20.19c-1.51,0-2.74-1.22-2.74-2.73,0-.01,0-.02,0-.03V2.75c0-1.51,1.21-2.74,2.72-2.74,0,0,0,0,0,0" style="fill:#548eb0;"/><path id="Path_1534" d="m346.11,712.4h20.19c1.51,0,2.74,1.22,2.74,2.73,0,.01,0,.02,0,.03v162.3c.01,1.5-1.2,2.73-2.7,2.74-.01,0-.03,0-.04,0h-20.19c-1.5.01-2.73-1.2-2.74-2.7,0-.01,0-.03,0-.04v-162.3c-.01-1.51,1.2-2.75,2.71-2.76.01,0,.02,0,.03,0" style="fill:#548eb0;"/><path id="Path_1535" d="m395.41,63.4h-78.43c-1.51,0-2.74-1.23-2.74-2.74v-20.19c0-1.51,1.23-2.74,2.74-2.74h78.43c1.51,0,2.74,1.21,2.74,2.72,0,0,0,0,0,0v20.19c0,1.51-1.21,2.74-2.72,2.74,0,0-.01,0-.02,0" style="fill:#548eb0;"/><path id="Path_1536" d="m451.18,348.78c-9.23,0-18.45.05-27.65.15-18.35.29-36.28,5.59-51.83,15.34-2.89,1.78-5.72,3.75-8.48,5.7-1.33.92-2.6,1.82-3.96,2.72-.93.74-2.04,1.23-3.21,1.43-.96-.09-1.87-.49-2.57-1.16l-4.09-2.99c-18.24-13.79-40.5-21.22-63.36-21.14l-30.09.02c-7.73,0-15.46-.02-23.3-.11-1.51-.01-2.75,1.21-2.76,2.72,0,.01,0,.03,0,.04.08,52.99.11,108.1,0,163.91,0,1.5,1.2,2.73,2.71,2.74.02,0,.04,0,.06,0,9.62-.09,19.23-.13,28.85-.13,8.22,0,16.44.04,24.65.11,27.29.32,49.9,11.46,67.25,33.09.84.61,1.86.9,2.89.81,1.05.1,2.1-.21,2.93-.86,17.6-21.82,40.52-32.92,68.13-33.05,7.09-.02,14.18-.04,21.22-.04l31.26.02c1.52-.01,2.74-1.25,2.74-2.76v-163.78c-.01-1.51-1.23-2.73-2.74-2.74l-28.64-.05Zm-107.23,166.8c-16.9-11.22-36.71-17.22-56.99-17.28,0,0-5.63.04-7.97.04l-11.95-.02c-2.89,0-5.76,0-8.8.04-.65,0-4.33-.08-6.95-.11-1.5-.03-2.7-1.26-2.7-2.76v-124.11c0-1.52,1.24-2.75,2.76-2.74,0,0,0,0,0,0,5.33.04,16.77.11,19.85.13,9.64-.14,19.27.31,28.85,1.35,17.98,2.38,34.56,11,46.84,24.35v122.83l-.13-.07c-.97-.5-1.91-1.05-2.82-1.65m116-17.65l-3.71.24c-1.48.07-3.94.15-5.43.15l-13.92.02c-3.62,0-11.29-.02-11.29-.02-20.06.05-39.67,5.93-56.44,16.93-.3.22-3.79,2.39-3.79,2.39v-122.59c16.04-16.9,36.41-25.83,60.74-26.39,3.49-.08,6.98-.13,10.43-.13,3.13,0,6.25.02,9.42.04l7.52.07c.96,0,1.93.08,2.98.17l3.51.3c1.43.12,2.53,1.31,2.53,2.74v123.36c0,1.44-1.13,2.63-2.57,2.72" style="fill:#548eb0;"/></g></g></g></g></svg>