<?xml version="1.0" encoding="UTF-8"?><svg id="Layer_2" xmlns="http://www.w3.org/2000/svg" xmlns:xlink="http://www.w3.org/1999/xlink" viewBox="0 0 960.78 468.81"><defs><clipPath id="clippath"><rect width="960.78" height="468.81" style="fill:none;"/></clipPath></defs><g id="Layer_1-2"><g id="Group_775"><g style="clip-path:url(#clippath);"><g id="Group_774"><path id="Path_1410" d="m424.13,119.06c6.67-.06,13.26,1.51,19.19,4.56l-3.76,9.53c-4.86-1.72-9.97-2.65-15.12-2.74-5.99,0-12.08,1.73-12.08,7.82,0,5.38,5.18,7.51,11.97,10.15,10.76,4.26,20.92,8.42,20.92,20.91,0,13.6-11.47,20.61-26.3,20.61-7.96.05-15.8-1.98-22.74-5.88l4.37-9.74c5.61,2.72,11.74,4.17,17.97,4.26,6.8,0,12.59-2.33,12.59-8.12s-5.59-7.82-12.79-10.46c-9.74-3.86-20-7.92-20-20.51,0-13.91,11.98-20.41,25.79-20.41" style="fill:#fff;"/><path id="Path_1411" d="m520.18,120.46l-.51,11.07h-19.79v56.96h-13.61v-56.94h-19.79l-.4-11.07,54.11-.02Z" style="fill:#fff;"/><path id="Path_1412" d="m612.69,176.52c2.69-1.81,4.26-4.88,4.16-8.12,0-6.39-4.37-9.95-15.03-9.95-1.82,0-4.36,0-7,.1v19.89c2.83.21,5.38.3,7.51.3,3.6.36,7.23-.42,10.36-2.23m-3.16-29.74c2.58-1.69,4.05-4.64,3.86-7.71,0-6.19-4.16-8.83-12.19-8.83-2.14,0-4.27.13-6.39.4v17.77c2.74,0,4.77.1,6.47.1,2.85.26,5.71-.34,8.22-1.72m-8.52-27.3c16.65,0,25.99,5.79,25.99,16.86.19,6.64-3.55,12.76-9.53,15.64,8.02,1.36,13.74,8.53,13.29,16.65,0,13.1-10.15,21.02-29.64,21.02-6.59-.12-13.16-.63-19.69-1.53v-67.1c6.49-.96,13.03-1.47,19.59-1.53" style="fill:#fff;"/><path id="Path_1413" d="m699.47,120.46l-.51,10.96h-28.33v16.96h22.46v10.86h-22.45v18.28h28.63l.49,10.96h-42.73v-68.02h42.44Z" style="fill:#fff;"/><path id="Path_1414" d="m758.3,175.2c6.46-5.03,10.01-12.94,9.45-21.12-.11-14.22-6.92-23.36-19.7-23.36-2.91-.01-5.83.12-8.73.4v46.81c2.33.21,4.86.3,7.51.3,4.04.13,8.03-.92,11.46-3.04m-10.05-55.85c21.52,0,33.59,14.01,33.59,34.11,0,21.21-13.4,36.13-35.23,36.13-6.99-.02-13.98-.53-20.9-1.52v-67.09c7.47-1.05,14.99-1.59,22.53-1.62" style="fill:#fff;"/><path id="Path_1415" d="m850.62,120.46l-.51,10.96h-28.33v16.96h22.44v10.86h-22.44v18.28h28.64l.5,10.96h-42.74v-68.02h42.44Z" style="fill:#fff;"/><path id="Path_1416" d="m888.02,109.01l-.81,28.43h-10.06l-.91-28.43h11.78Z" style="fill:#fff;"/><path id="Path_1417" d="m939.65,119.06c6.67-.05,13.25,1.51,19.19,4.56l-3.77,9.54c-4.86-1.72-9.97-2.65-15.13-2.74-5.99,0-12.08,1.73-12.08,7.82,0,5.38,5.18,7.51,11.97,10.15,10.76,4.26,20.91,8.42,20.91,20.91,0,13.6-11.46,20.61-26.28,20.61-7.96.05-15.8-1.98-22.74-5.88l4.36-9.74c5.61,2.72,11.74,4.17,17.98,4.26,6.8,0,12.59-2.33,12.59-8.12s-5.6-7.82-12.8-10.46c-9.74-3.86-20-7.92-20-20.51,0-13.91,11.98-20.41,25.79-20.41" style="fill:#fff;"/><path id="Path_1418" d="m412.8,223.94c3.41-.03,6.77.87,9.71,2.6l-2.18,4.57c-2.32-1.3-4.94-1.98-7.6-1.97-2.51-.1-4.96.84-6.75,2.61-2.58,3.03-3.9,6.95-3.67,10.93,0,6.47,2.55,12.81,10.64,12.81,2.74-.02,5.45-.6,7.96-1.7l1.59,4.52c-3.23,1.58-6.78,2.39-10.37,2.39-10.41,0-15.94-7.56-15.94-17.6s5.16-19.19,16.59-19.19" style="fill:#fff;"/><path id="Path_1419" d="m444.47,246.27h9.47l-2.4-7.55-2.02-7.28h-.21l-4.83,14.83Zm8.24-21.85l10.57,32.84c.34.93.55,1.89.64,2.87h-5.58l-2.83-8.9h-12.64l-2.92,8.9h-5.74c.16-.96.39-1.91.69-2.83l11.21-32.66,6.6-.22Z" style="fill:#fff;"/><path id="Path_1420" d="m498.52,224.52l-.16,5h-10.79v30.61h-5.79v-30.61h-10.83l-.16-5h27.74Z" style="fill:#fff;"/><path id="Path_1421" d="m538.89,224.52v35.61h-5.79v-15.62h-15.34v15.62h-5.87v-35.61h5.87v14.97h15.38v-14.97h5.75Z" style="fill:#fff;"/><path id="Path_1422" d="m569.54,228.99c-1.96-.07-3.87.6-5.37,1.86-2.97,3.08-4.53,7.26-4.31,11.53,0,7.23,3.35,13.29,9.78,13.29,1.94.08,3.84-.59,5.31-1.86,2.98-3.07,4.52-7.26,4.25-11.53,0-7.24-3.3-13.29-9.67-13.29m.27-5.21c10.05,0,15.51,8.13,15.51,18.02s-5.15,19.07-15.94,19.07c-10.12,0-15.57-8.13-15.57-18.01s5.14-19.08,15.99-19.08" style="fill:#fff;"/><path id="Path_1423" d="m606.06,224.52v30.61h14.19l.21,4.99h-20.23v-35.61h5.83Z" style="fill:#fff;"/><rect id="Rectangle_337" x="633.8" y="224.52" width="5.85" height="35.61" style="fill:#fff;"/><path id="Path_1424" d="m671.1,223.94c3.41-.03,6.77.87,9.71,2.6l-2.18,4.57c-2.32-1.3-4.94-1.98-7.6-1.97-2.51-.1-4.95.84-6.74,2.61-2.59,3.03-3.9,6.95-3.67,10.93,0,6.47,2.55,12.81,10.63,12.81,2.75-.02,5.46-.6,7.97-1.7l1.59,4.52c-3.23,1.57-6.77,2.39-10.36,2.39-10.42,0-15.94-7.56-15.94-17.6s5.14-19.19,16.59-19.19" style="fill:#fff;"/><path id="Path_1425" d="m729.1,223.94c3.41-.03,6.77.87,9.71,2.6l-2.18,4.57c-2.32-1.3-4.94-1.98-7.6-1.97-2.51-.1-4.95.84-6.75,2.61-2.59,3.03-3.9,6.95-3.67,10.93,0,6.47,2.55,12.81,10.64,12.81,2.75-.02,5.46-.6,7.97-1.7l1.59,4.52c-3.23,1.57-6.78,2.39-10.37,2.39-10.41,0-15.94-7.56-15.94-17.6s5.15-19.19,16.59-19.19" style="fill:#fff;"/><path id="Path_1426" d="m765.42,228.99c-1.95-.06-3.86.6-5.36,1.86-2.97,3.08-4.53,7.26-4.31,11.53,0,7.23,3.35,13.29,9.78,13.29,1.94.08,3.84-.59,5.31-1.86,2.98-3.07,4.52-7.26,4.25-11.53,0-7.24-3.3-13.29-9.68-13.29m.28-5.21c10.05,0,15.52,8.13,15.52,18.02s-5.15,19.07-15.95,19.07c-10.12,0-15.56-8.13-15.56-18.01s5.15-19.08,15.99-19.08" style="fill:#fff;"/><path id="Path_1427" d="m801.95,224.52v30.61h14.19l.21,4.99h-20.23v-35.61h5.84Z" style="fill:#fff;"/><path id="Path_1428" d="m835.54,224.52v30.61h14.19l.21,4.99h-20.23v-35.61h5.84Z" style="fill:#fff;"/><path id="Path_1429" d="m884.6,224.52l-.16,5h-15.31v9.88h12.28v4.99h-12.28v10.74h15.47l.21,4.99h-21.53l.05-35.61h21.26Z" style="fill:#fff;"/><path id="Path_1430" d="m913.57,223.94c3.4-.01,6.74.88,9.67,2.6l-2.17,4.57c-2.38-1.31-5.05-2.01-7.77-2.02-2.61-.09-5.13.91-6.96,2.77-2.74,2.9-4.14,6.82-3.86,10.8,0,6.47,2.61,12.86,10.84,12.86,1.58,0,3.15-.17,4.68-.53v-7.97h-7.03v-5h12.59v16.19c-3.35,1.63-7.02,2.49-10.74,2.5-10.99,0-16.47-7.61-16.47-17.54s5.63-19.24,17.22-19.24" style="fill:#fff;"/><path id="Path_1431" d="m960.57,224.52l-.16,5h-15.31v9.88h12.28v4.99h-12.28v10.74h15.47l.21,4.99h-21.53l.05-35.61h21.26Z" style="fill:#fff;"/><path id="Path_1432" d="m543.35,294.89c3.41-.03,6.77.87,9.71,2.6l-2.18,4.57c-2.32-1.3-4.94-1.98-7.6-1.97-2.51-.1-4.95.84-6.75,2.61-2.59,3.03-3.9,6.95-3.67,10.93,0,6.47,2.55,12.81,10.64,12.81,2.75-.02,5.46-.6,7.97-1.7l1.59,4.52c-3.23,1.58-6.78,2.39-10.37,2.39-10.41,0-15.94-7.56-15.94-17.6s5.15-19.19,16.59-19.19" style="fill:#fff;"/><path id="Path_1433" d="m593.69,295.48v35.61h-5.8v-15.62h-15.35v15.62h-5.86v-35.61h5.86v14.97h15.35v-14.97h5.8Z" style="fill:#fff;"/><rect id="Rectangle_338" x="610.41" y="295.48" width="5.85" height="35.61" style="fill:#fff;"/><path id="Path_1434" d="m644.59,294.73c3.3.01,6.55.78,9.51,2.23l-1.65,4.45c-2.53-.97-5.21-1.48-7.92-1.49-3.35,0-7.07.96-7.07,4.73,0,3.24,3.08,4.45,6.91,5.91,5.47,2.18,10.73,4.19,10.73,10.67,0,7.02-5.94,10.58-13.35,10.58-4.06.04-8.06-1.07-11.53-3.18l2.13-4.42c2.89,1.56,6.12,2.38,9.4,2.39,3.83,0,7.33-1.38,7.33-4.88s-3.41-4.68-7.44-6.17c-4.99-1.97-10.2-4.05-10.2-10.47,0-7.18,6.38-10.37,13.13-10.37" style="fill:#fff;"/><path id="Path_1435" d="m696.46,295.48v35.61h-5.79v-15.62h-15.38v15.62h-5.83v-35.61h5.85v14.97h15.38v-14.97h5.77Z" style="fill:#fff;"/><path id="Path_1436" d="m727.11,299.94c-1.96-.07-3.87.6-5.37,1.86-2.97,3.08-4.53,7.26-4.31,11.53,0,7.23,3.35,13.29,9.78,13.29,1.94.08,3.85-.58,5.31-1.86,2.98-3.07,4.52-7.26,4.25-11.53,0-7.23-3.29-13.29-9.67-13.29m.27-5.21c10.05,0,15.52,8.13,15.52,18.02s-5.16,19.07-15.95,19.07c-10.09,0-15.57-8.13-15.57-18.01s5.15-19.08,15.99-19.08" style="fill:#fff;"/><path id="Path_1437" d="m763.64,295.48v30.61h14.19l.21,4.99h-20.23v-35.61h5.84Z" style="fill:#fff;"/><path id="Path_1438" d="m825.56,295.48l3.93,31.63c.22,1.32.36,2.65.42,3.98h-5.47l-2.72-21.73-.63-6.65h-.21l-7.23,28.37h-7.18l-5.84-21.79-1.49-6.65h-.15l-3.18,28.43h-5.31c.07-1.48.24-2.95.49-4.42l3.72-31.19h8.23l5.9,21.85,1.39,6.65h.21l6.96-28.49h8.17Z" style="fill:#fff;"/><path id="Path_1439" d="m0,36.32v291.68c0,.62.15,1.23.42,1.78l.06.11c.24.47.58.89.98,1.23l165.48,136.93c.59.5,1.35.77,2.12.77h0c.77,0,1.52-.27,2.12-.77l165.48-136.93c.41-.34.74-.76.99-1.23l.05-.11c.28-.55.43-1.16.42-1.78V36.32c0-2.16-1.75-3.91-3.91-3.91H3.91c-2.16,0-3.91,1.75-3.91,3.91" style="fill:#ffa300;"/><path id="Path_1440" d="m169.18,153.84c-38.24,0-69.24,31-69.24,69.24s31,69.24,69.24,69.24,69.24-31,69.24-69.24c-.04-38.22-31.02-69.2-69.24-69.24m0,152.46c-45.96,0-83.23-37.24-83.24-83.2,0-45.96,37.24-83.23,83.2-83.24,45.96,0,83.23,37.24,83.24,83.2v.02c-.05,45.93-37.27,83.16-83.2,83.22" style="fill:#2a2f51;"/><path id="Path_1441" d="m71.29,227.66h-27.92c-.54,0-.97-.44-.98-.98v-7.19c0-.54.44-.98.98-.98h27.92c.54,0,.98.44.98.98h0v7.19c0,.54-.43.97-.97.98,0,0,0,0,0,0" style="fill:#2a2f51;"/><path id="Path_1442" d="m294.98,227.66h-27.92c-.54,0-.97-.44-.98-.98v-7.19c0-.54.44-.98.98-.98h27.92c.54,0,.98.44.98.98h0v7.19c0,.54-.43.97-.97.98,0,0,0,0,0,0" style="fill:#2a2f51;"/><path id="Path_1443" d="m73.57,244.59l-27.49,4.86c-.53.1-1.03-.25-1.13-.77,0,0,0,0,0-.01l-1.25-7.08c-.1-.53.25-1.03.78-1.12,0,0,.02,0,.03,0l27.49-4.86c.52-.08,1.01.27,1.1.78l1.25,7.08c.1.53-.26,1.04-.79,1.13,0,0-.02,0-.02,0" style="fill:#2a2f51;"/><path id="Path_1444" d="m293.86,205.74l-27.49,4.86c-.53.09-1.03-.26-1.13-.79,0,0,0-.01,0-.02l-1.25-7.08c-.1-.53.25-1.03.78-1.12.01,0,.02,0,.03,0l27.49-4.86c.53-.09,1.04.26,1.13.8,0,0,0,0,0,.01l1.25,7.07c.1.53-.26,1.04-.79,1.13,0,0-.02,0-.02,0" style="fill:#2a2f51;"/><path id="Path_1445" d="m78.75,260.86l-26.23,9.54c-.5.19-1.06-.07-1.25-.57,0,0,0,0,0-.01l-2.46-6.75c-.19-.5.07-1.07.57-1.26,0,0,0,0,0,0l26.23-9.54c.5-.18,1.06.08,1.25.58l2.46,6.76c.19.5-.07,1.06-.58,1.25,0,0,0,0-.01,0" style="fill:#2a2f51;"/><path id="Path_1446" d="m288.96,184.36l-26.24,9.54c-.5.19-1.06-.07-1.25-.57,0,0,0,0,0,0l-2.46-6.75c-.19-.5.07-1.07.57-1.26,0,0,0,0,0,0l26.23-9.54c.5-.18,1.06.08,1.25.58l2.46,6.76c.18.51-.08,1.07-.58,1.25,0,0,0,0,0,0" style="fill:#2a2f51;"/><path id="Path_1447" d="m86.69,275.99l-24.17,13.96c-.47.27-1.07.11-1.34-.36l-3.6-6.22c-.27-.47-.11-1.06.36-1.34l24.17-13.96c.47-.27,1.07-.11,1.34.36l3.59,6.23c.27.47.11,1.06-.36,1.33,0,0,0,0,0,0" style="fill:#2a2f51;"/><path id="Path_1448" d="m280.41,164.15l-24.18,13.96c-.47.27-1.07.11-1.34-.36l-3.6-6.23c-.27-.47-.11-1.06.36-1.34l24.17-13.96c.47-.27,1.07-.11,1.34.36l3.59,6.23c.27.47.11,1.07-.36,1.34" style="fill:#2a2f51;"/><path id="Path_1449" d="m97.13,289.51l-21.38,17.94c-.41.35-1.02.3-1.36-.1,0,0,0,0,0,0l-4.63-5.51c-.34-.42-.29-1.03.12-1.38l21.38-17.94c.41-.35,1.03-.29,1.38.11l4.62,5.51c.34.42.29,1.03-.12,1.38" style="fill:#2a2f51;"/><path id="Path_1450" d="m268.48,145.72l-21.38,17.94c-.41.34-1.03.29-1.37-.12l-4.63-5.5c-.34-.41-.29-1.03.12-1.37l21.38-17.94c.42-.34,1.03-.29,1.38.12l4.62,5.5c.34.42.29,1.03-.12,1.38" style="fill:#2a2f51;"/><path id="Path_1451" d="m109.75,301.01l-17.94,21.38c-.35.41-.96.47-1.37.12l-5.51-4.63c-.41-.34-.46-.95-.12-1.36,0,0,0,0,0,0l17.94-21.38c.35-.41.97-.47,1.38-.12h0s5.5,4.62,5.5,4.62c.41.35.46.96.12,1.38" style="fill:#2a2f51;"/><path id="Path_1452" d="m253.54,129.66l-17.94,21.38c-.35.41-.96.47-1.37.12l-5.51-4.63c-.41-.34-.46-.95-.12-1.36,0,0,0,0,0,0l17.94-21.38c.35-.41.97-.47,1.38-.12,0,0,0,0,0,0l5.5,4.62c.41.35.46.96.12,1.38" style="fill:#2a2f51;"/><path id="Path_1453" d="m124.19,310.15l-13.96,24.17c-.27.47-.86.63-1.33.36,0,0,0,0,0,0l-6.23-3.59c-.47-.27-.63-.87-.35-1.34,0,0,0,0,0,0l13.95-24.17c.27-.47.87-.63,1.34-.35,0,0,0,0,0,0l6.22,3.59c.47.27.63.87.36,1.34" style="fill:#2a2f51;"/><path id="Path_1454" d="m236.04,116.43l-13.96,24.17c-.27.47-.86.63-1.33.36,0,0,0,0,0,0l-6.22-3.59c-.47-.27-.63-.87-.35-1.34,0,0,0,0,0,0l13.95-24.17c.27-.47.87-.63,1.34-.36l6.22,3.6c.47.27.63.87.36,1.34" style="fill:#2a2f51;"/><path id="Path_1455" d="m140,316.63l-9.54,26.23c-.19.5-.75.76-1.25.58l-6.76-2.46c-.5-.19-.76-.75-.58-1.25l9.54-26.22c.17-.5.72-.77,1.22-.6,0,0,.02,0,.03,0l6.75,2.46c.51.18.77.73.59,1.24,0,0,0,0,0,.01" style="fill:#2a2f51;"/><path id="Path_1456" d="m216.5,106.44l-9.54,26.23c-.19.5-.75.76-1.25.58l-6.76-2.46c-.5-.19-.76-.75-.58-1.25l9.54-26.23c.18-.51.74-.77,1.25-.59,0,0,0,0,0,0l6.75,2.46c.5.18.77.73.59,1.23,0,0,0,.01,0,.02" style="fill:#2a2f51;"/><path id="Path_1457" d="m156.69,320.28l-4.86,27.49c-.08.53-.58.9-1.12.81,0,0,0,0-.01,0l-7.08-1.25c-.53-.08-.89-.58-.81-1.11,0,0,0-.01,0-.02l4.86-27.49c.09-.54.6-.9,1.14-.81l7.08,1.24c.53.08.9.58.81,1.11,0,0,0,.02,0,.02" style="fill:#2a2f51;"/><path id="Path_1458" d="m195.52,99.99l-4.86,27.49c-.09.54-.6.9-1.14.81l-7.08-1.25c-.53-.08-.89-.58-.81-1.11,0,0,0-.01,0-.02l4.87-27.51c.09-.54.6-.9,1.14-.81l7.08,1.24c.53.08.9.58.81,1.11,0,0,0,.02,0,.02" style="fill:#2a2f51;"/><path id="Path_1459" d="m147.68,127.48l-4.86-27.49c-.09-.53.27-1.04.8-1.13,0,0,0,0,0,0l7.08-1.25c.53-.1,1.03.25,1.12.78,0,0,0,.02,0,.03l4.86,27.49c.09.53-.28,1.04-.81,1.13l-7.07,1.25c-.53.1-1.04-.26-1.13-.79,0,0,0-.02,0-.02" style="fill:#2a2f51;"/><path id="Path_1460" d="m186.52,347.77l-4.86-27.49c-.1-.53.25-1.03.77-1.13,0,0,0,0,.01,0l7.08-1.26c.53-.09,1.04.26,1.13.8,0,0,0,0,0,.01l4.86,27.49c.09.53-.26,1.04-.8,1.13,0,0,0,0-.01,0l-7.07,1.25c-.54.09-1.04-.27-1.14-.8,0,0,0,0,0,0" style="fill:#2a2f51;"/><path id="Path_1461" d="m131.41,132.66l-9.55-26.22c-.19-.5.07-1.06.57-1.25,0,0,0,0,0,0l6.75-2.46c.5-.19,1.07.07,1.26.57,0,0,0,0,0,0l9.54,26.23c.18.5-.08,1.06-.58,1.25l-6.76,2.46c-.51.18-1.07-.08-1.25-.58,0,0,0,0,0,0" style="fill:#2a2f51;"/><path id="Path_1462" d="m207.91,342.87l-9.54-26.23c-.19-.51.07-1.07.58-1.26,0,0,0,0,0,0l6.75-2.43c.5-.19,1.06.06,1.25.56,0,0,0,.01,0,.02l9.54,26.23c.18.5-.08,1.06-.58,1.25l-6.75,2.44c-.5.18-1.06-.08-1.25-.58" style="fill:#2a2f51;"/><path id="Path_1463" d="m116.27,140.6l-13.96-24.17c-.27-.47-.11-1.07.36-1.34l6.23-3.6c.47-.27,1.06-.11,1.34.36l13.95,24.16c.27.47.11,1.07-.36,1.34l-6.23,3.59c-.47.27-1.06.11-1.33-.36,0,0,0,0,0,0" style="fill:#2a2f51;"/><path id="Path_1464" d="m228.12,334.32l-13.96-24.17c-.27-.47-.11-1.07.36-1.34l6.23-3.6c.47-.27,1.06-.11,1.34.36l13.96,24.17c.27.47.11,1.07-.36,1.34l-6.23,3.59c-.47.27-1.06.11-1.33-.36,0,0,0,0,0,0" style="fill:#2a2f51;"/><path id="Path_1465" d="m102.75,151.04l-17.94-21.38c-.34-.41-.29-1.03.12-1.37l5.51-4.63c.41-.34,1.03-.29,1.37.12l17.94,21.38c.34.42.29,1.03-.12,1.38l-5.5,4.62c-.42.34-1.03.29-1.38-.12" style="fill:#2a2f51;"/><path id="Path_1466" d="m246.53,322.4l-17.94-21.38c-.34-.41-.29-1.03.12-1.37l5.51-4.62c.41-.35,1.02-.3,1.37.11l17.94,21.38c.34.42.29,1.03-.12,1.38l-5.5,4.62c-.41.35-1.03.29-1.38-.12,0,0,0,0,0,0" style="fill:#2a2f51;"/><path id="Path_1467" d="m91.26,163.67l-21.38-17.94c-.41-.35-.47-.96-.12-1.37l4.63-5.51c.34-.41.95-.46,1.36-.12,0,0,0,0,0,0l21.38,17.94c.41.35.47.97.12,1.38,0,0,0,0,0,0l-4.62,5.5c-.35.41-.96.46-1.38.12" style="fill:#2a2f51;"/><path id="Path_1468" d="m262.6,307.45l-21.38-17.94c-.41-.35-.46-.96-.12-1.38l4.64-5.51c.34-.41.95-.46,1.36-.12,0,0,0,0,0,0l21.38,17.94c.41.35.47.97.12,1.38,0,0,0,0,0,0l-4.62,5.51c-.35.41-.97.46-1.38.11" style="fill:#2a2f51;"/><path id="Path_1469" d="m82.11,178.1l-24.17-13.96c-.47-.27-.63-.86-.36-1.33,0,0,0,0,0,0l3.59-6.21c.27-.47.87-.63,1.34-.35,0,0,0,0,0,0l24.17,13.95c.47.27.63.87.36,1.34l-3.6,6.22c-.27.47-.87.63-1.34.36" style="fill:#2a2f51;"/><path id="Path_1470" d="m275.84,289.94l-24.17-13.96c-.47-.27-.63-.87-.36-1.34,0,0,0,0,0,0l3.59-6.22c.27-.47.87-.63,1.34-.36l24.17,13.96c.47.27.63.87.36,1.34l-3.6,6.23c-.27.47-.87.63-1.34.36" style="fill:#2a2f51;"/><path id="Path_1471" d="m75.63,193.9l-26.23-9.54c-.5-.19-.76-.75-.58-1.25l2.46-6.75c.18-.51.73-.77,1.24-.59,0,0,0,0,.01,0l26.23,9.54c.51.18.77.74.59,1.25,0,0,0,0,0,0l-2.46,6.75c-.18.51-.73.77-1.24.59,0,0,0,0-.01,0" style="fill:#2a2f51;"/><path id="Path_1472" d="m285.82,270.42l-26.23-9.54c-.5-.19-.76-.75-.58-1.25l2.46-6.76c.18-.5.73-.77,1.23-.59,0,0,0,0,.01,0l26.23,9.54c.51.18.77.73.59,1.24,0,0,0,0,0,.01l-2.46,6.75c-.18.51-.74.77-1.25.59" style="fill:#2a2f51;"/><path id="Path_1473" d="m71.99,210.59l-27.49-4.86c-.53-.08-.9-.58-.81-1.12,0,0,0,0,0-.01l1.25-7.08c.08-.53.58-.89,1.11-.81,0,0,.01,0,.02,0l27.49,4.86c.53.08.9.58.81,1.12,0,0,0,0,0,.01l-1.26,7.1c-.08.53-.58.9-1.11.81,0,0-.02,0-.02,0" style="fill:#2a2f51;"/><path id="Path_1474" d="m292.27,249.44l-27.49-4.86c-.54-.09-.9-.6-.81-1.14l1.25-7.09c.09-.53.6-.88,1.13-.79,0,0,0,0,0,0l27.49,4.86c.53.08.89.58.81,1.11,0,0,0,0,0,.01l-1.25,7.1c-.09.54-.59.9-1.13.81,0,0,0,0,0,0" style="fill:#2a2f51;"/><path id="Path_1475" d="m165.58,66.45h7.19c.54,0,.97.43.98.97,0,0,0,0,0,0v57.78c0,.54-.43.98-.97.98,0,0,0,0,0,0h-7.19c-.54,0-.98-.44-.98-.98,0,0,0,0,0,0v-57.78c0-.54.43-.97.97-.98,0,0,0,0,0,0" style="fill:#2a2f51;"/><path id="Path_1476" d="m165.58,320h7.19c.54,0,.98.44.98.98,0,0,0,0,0,0v57.78c0,.53-.42.97-.96.98,0,0-.01,0-.02,0h-7.19c-.53,0-.97-.42-.98-.96,0,0,0-.01,0-.02v-57.78c0-.54.43-.98.97-.98,0,0,0,0,0,0" style="fill:#2a2f51;"/><path id="Path_1477" d="m183.14,89.01h-27.92c-.54,0-.97-.44-.98-.98v-7.19c0-.54.44-.97.98-.98h27.92c.54,0,.97.43.98.97,0,0,0,0,0,0v7.19c0,.54-.43.97-.97.98,0,0,0,0,0,0" style="fill:#2a2f51;"/><path id="Path_1478" d="m202.98,190.57c-3.28,0-6.56.02-9.83.05-6.53.1-12.91,1.99-18.45,5.46-1.03.63-2.02,1.34-3.02,2.02-.47.33-.94.65-1.41.97-.33.26-.73.44-1.15.51-.34-.03-.66-.17-.91-.4l-1.46-1.07c-6.49-4.91-14.42-7.55-22.56-7.52h-10.71c-2.75,0-5.5,0-8.29-.04-.54,0-.98.43-.98.97,0,0,0,.01,0,.02.03,18.86.04,38.47,0,58.34,0,.54.43.97.97.98,0,0,.01,0,.02,0,3.42-.03,6.85-.04,10.27-.04,2.93,0,5.85.01,8.77.04,9.39-.04,18.25,4.32,23.95,11.78.3.22.66.32,1.03.29.37.03.75-.07,1.04-.3,5.78-7.52,14.77-11.87,24.25-11.74h18.67c.54,0,.98-.44.98-.98h0v-58.27c0-.54-.44-.97-.98-.98l-10.19-.06Zm-38.17,59.37c-6.01-3.99-13.07-6.13-20.29-6.15h-10.22c-.23,0-1.54-.03-2.47-.04-.53-.01-.96-.45-.96-.98v-44.14c0-.54.44-.98.98-.98h0l7.07.04c3.43-.05,6.86.11,10.27.48,6.4.85,12.3,3.92,16.66,8.67v43.71l-.04-.02c-.35-.18-.69-.37-1.02-.59m41.28-6.28l-1.32.08c-.53.02-1.4.05-1.93.05h-8.97c-7.14.02-14.11,2.11-20.08,6.03-.11.08-1.35.85-1.35.85v-43.62c5.6-5.98,13.42-9.38,21.62-9.39,1.24-.03,2.48-.04,3.71-.04h3.35l2.68.02c.34,0,.69.03,1.06.06l1.25.11c.51.04.9.47.9.98v43.91c0,.52-.41.94-.92.97" style="fill:#2a2f51;"/><path id="Path_1479" d="m5.77,2.04c1.35,0,2.69.31,3.88.94l-.75,1.91c-.99-.35-2.02-.53-3.07-.55-1.21,0-2.43.35-2.43,1.59,0,1.1,1.04,1.53,2.43,2.06,2.18.87,4.24,1.72,4.24,4.24,0,2.77-2.33,4.18-5.34,4.18-1.62,0-3.21-.42-4.61-1.21l.89-1.97c1.14.55,2.38.85,3.64.87,1.38,0,2.55-.48,2.55-1.66s-1.13-1.59-2.59-2.12c-1.97-.78-4.05-1.62-4.05-4.16C.56,3.33,2.99,2.02,5.79,2.02" style="fill:#fff;"/><path id="Path_1480" d="m26.36,2.31v13.81h-2.74v-5.88h-5.43v5.88h-2.76V2.31h2.76v5.67h5.43V2.31h2.74Z" style="fill:#fff;"/><rect id="Rectangle_339" x="32.58" y="2.33" width="2.76" height="13.79" style="fill:#fff;"/><path id="Path_1481" d="m44.53,2.31l4.67,8.01,1.09,2.33h.04l-.12-2.59V2.31h2.46v13.81h-2.99l-4.75-8.09-1.04-2.16h-.04l.1,2.35v7.9h-2.43V2.31h3.01Z" style="fill:#fff;"/><path id="Path_1482" d="m67.49,2.31l-.1,2.23h-5.75v3.44h4.55v2.2h-4.55v3.7h5.8l.11,2.22h-8.66V2.31h8.6Z" style="fill:#fff;"/><path id="Path_1483" d="m97.87,2.33c-.13.66-.31,1.32-.54,1.95l-3.39,11.79-3.31.08-1.75-8.5-.35-2.36h-.08l-2.31,10.78-3.31.08-3.16-11.94c-.2-.61-.35-1.24-.43-1.87h2.78l2.02,8.13.49,2.74h.08l2.27-10.87h3.44l1.71,8.13.4,2.74h.1l2.63-10.87h2.71Z" style="fill:#fff;"/><rect id="Rectangle_340" x="102.82" y="2.33" width="2.75" height="13.79" style="fill:#fff;"/><path id="Path_1484" d="m121.52,2.31l-.1,2.24h-4v11.57h-2.76V4.57h-4.01l-.11-2.26h10.98Z" style="fill:#fff;"/><path id="Path_1485" d="m137.45,2.31v13.81h-2.75v-5.88h-5.43v5.88h-2.74V2.31h2.76v5.67h5.41V2.31h2.75Z" style="fill:#fff;"/><path id="Path_1486" d="m156.91,2.1c1.35-.02,2.68.33,3.85,1.01l-.97,2.02c-.86-.45-1.81-.69-2.78-.68-.92-.04-1.82.3-2.48.95-.92,1.1-1.4,2.5-1.32,3.93,0,2.36.95,4.67,3.91,4.67,1-.01,2-.22,2.93-.59l.67,2.02c-1.28.63-2.68.95-4.11.93-3.39.1-6.22-2.57-6.32-5.96,0-.29,0-.59.04-.88-.4-3.68,2.26-6.99,5.95-7.39.21-.02.43-.04.64-.04" style="fill:#fff;"/><path id="Path_1487" d="m176.73,2.31v13.81h-2.74v-5.88h-5.43v5.88h-2.76V2.31h2.76v5.67h5.43V2.31h2.74Z" style="fill:#fff;"/><path id="Path_1488" d="m188.76,8.58c.77-.37,1.25-1.17,1.19-2.02,0-1.44-.96-2.14-2.83-2.14-.48,0-.95.03-1.42.08v4.42c.35.02.7.04,1.02.04.69.03,1.39-.1,2.02-.37m-1.85-6.47c3.56,0,5.91,1.38,5.91,4.2.04,1.76-.95,3.37-2.53,4.14l2.43,4.26c.26.44.46.92.59,1.42h-2.83l-2.67-5.02c-.28,0-.57.04-.86.04s-.76-.02-1.21-.06v5.04h-2.74V2.43c1.31-.2,2.63-.31,3.95-.33" style="fill:#fff;"/><rect id="Rectangle_341" x="198.52" y="2.33" width="2.75" height="13.79" style="fill:#fff;"/><path id="Path_1489" d="m212.16,2.04c1.35-.01,2.69.31,3.89.93l-.75,1.93c-.99-.35-2.04-.54-3.09-.56-1.21,0-2.43.35-2.43,1.59,0,1.1,1.04,1.53,2.43,2.06,2.18.87,4.24,1.72,4.24,4.24,0,2.77-2.33,4.18-5.34,4.18-1.62,0-3.21-.42-4.61-1.21l.89-1.97c1.14.55,2.38.85,3.64.87,1.39,0,2.55-.48,2.55-1.66s-1.13-1.59-2.59-2.12c-1.97-.78-4.05-1.62-4.05-4.16,0-2.83,2.43-4.14,5.23-4.14" style="fill:#fff;"/><path id="Path_1490" d="m231.79,2.31l-.1,2.24h-4.02v11.57h-2.76V4.57h-4.01l-.08-2.26h10.97Z" style="fill:#fff;"/><path id="Path_1491" d="m236.65,0l.19,5.76h2.02l.18-5.76h-2.4Z" style="fill:#fff;"/><path id="Path_1492" d="m249.67,2.04c1.35-.01,2.69.31,3.89.93l-.75,1.93c-.99-.35-2.02-.54-3.07-.56-1.21,0-2.43.35-2.43,1.59,0,1.1,1.04,1.53,2.43,2.06,2.18.87,4.24,1.72,4.24,4.24,0,2.77-2.33,4.18-5.34,4.18-1.62,0-3.21-.42-4.61-1.21l.89-1.97c1.14.55,2.38.85,3.64.87,1.39,0,2.55-.48,2.55-1.66s-1.13-1.59-2.59-2.12c-1.97-.78-4.05-1.62-4.05-4.16,0-2.83,2.43-4.14,5.23-4.14" style="fill:#fff;"/><path id="Path_1493" d="m272.9,2.1c1.36,0,2.71.35,3.89,1.03l-.96,2c-.93-.46-1.95-.7-2.99-.7-.96-.05-1.89.31-2.57.99-1,1.06-1.5,2.48-1.4,3.93,0,2.43.98,4.69,3.9,4.69.52,0,1.03-.06,1.54-.15v-4.61h2.55v6.09c-1.35.65-2.84.98-4.34.98-3.4.21-6.33-2.38-6.54-5.79-.02-.32-.01-.65.02-.97-.34-3.78,2.45-7.13,6.24-7.47.22-.02.44-.03.67-.03" style="fill:#fff;"/><path id="Path_1494" d="m285.48,2.31v11.57h5.19l.12,2.24h-8.07V2.31h2.75Z" style="fill:#fff;"/><path id="Path_1495" d="m301.06,4.34c-.71-.03-1.39.23-1.9.72-1.04,1.13-1.57,2.64-1.49,4.18,0,2.59,1.14,4.86,3.4,4.86.69.03,1.37-.22,1.87-.7,1.03-1.16,1.56-2.68,1.46-4.22,0-2.64-1.11-4.86-3.35-4.86m.1-2.3c3.45.03,6.22,2.84,6.19,6.29,0,.25-.02.5-.05.75.43,3.62-2.16,6.9-5.79,7.33-.18.02-.37.04-.55.04-3.46-.03-6.23-2.85-6.2-6.31,0-.23.02-.46.04-.69-.44-3.61,2.13-6.9,5.74-7.34.21-.03.41-.04.62-.05" style="fill:#fff;"/><path id="Path_1496" d="m318.63,8.58c.77-.37,1.25-1.17,1.19-2.02,0-1.44-.96-2.14-2.83-2.14-.48,0-.95.03-1.42.08v4.42c.35.02.7.04,1.01.04.69.03,1.39-.1,2.02-.37m-1.85-6.47c3.56,0,5.91,1.38,5.91,4.2.04,1.76-.95,3.37-2.53,4.14l2.43,4.26c.26.44.46.92.59,1.42h-2.83l-2.67-5.02c-.28,0-.57.04-.86.04s-.76-.02-1.21-.06v5.04h-2.75V2.43c1.31-.2,2.63-.31,3.95-.33" style="fill:#fff;"/><path id="Path_1497" d="m338.25,2.33c-.14.65-.4,1.28-.76,1.84l-3.62,6.7v5.26h-2.74v-5.26l-3.57-6.7c-.36-.56-.62-1.18-.76-1.84h2.91l2.02,4.05.84,1.89h.04l2.87-5.94h2.77Z" style="fill:#fff;"/></g></g></g></g></svg>