<?xml version="1.0" encoding="UTF-8"?><svg id="Layer_2" xmlns="http://www.w3.org/2000/svg" xmlns:xlink="http://www.w3.org/1999/xlink" viewBox="0 0 503.78 879.46"><defs><clipPath id="clippath"><rect width="503.78" height="879.46" style="fill:none;"/></clipPath></defs><g id="Layer_1-2"><g style="clip-path:url(#clippath);"><g id="Group_779"><path id="Path_1537" d="m0,54.1v434.57c0,.92.22,1.83.64,2.65l.09.15c.36.71.87,1.33,1.48,1.84l246.52,204c.89.73,2,1.14,3.15,1.14h0c1.15,0,2.27-.4,3.16-1.14l246.54-204c.61-.51,1.12-1.13,1.48-1.84l.08-.16c.42-.82.64-1.73.64-2.65V54.09c0-3.22-2.61-5.82-5.82-5.82H5.83C2.61,48.26,0,50.87,0,54.09c0,0,0,0,0,.01" style="fill:#ffa300;"/><path id="Path_1538" d="m251.89,229.21c-56.97,0-103.16,46.19-103.16,103.16,0,56.97,46.19,103.16,103.16,103.16s103.16-46.19,103.16-103.16h0c-.07-56.95-46.22-103.1-103.16-103.16m0,227.14c-68.47,0-123.98-55.51-123.98-123.99s55.51-123.98,123.99-123.98c68.47,0,123.97,55.51,123.98,123.97-.08,68.44-55.54,123.9-123.98,123.98" style="fill:#2a2f51;"/><path id="Path_1539" d="m106.05,339.18h-41.58c-.8-.01-1.44-.66-1.46-1.45v-10.72c0-.8.65-1.46,1.45-1.46h41.59c.8,0,1.45.65,1.45,1.45,0,0,0,0,0,0v10.71c0,.8-.65,1.45-1.45,1.45" style="fill:#2a2f51;"/><path id="Path_1540" d="m439.32,339.18h-41.58c-.8,0-1.46-.65-1.46-1.45h0v-10.73c0-.8.65-1.46,1.45-1.46h41.59c.8,0,1.45.65,1.45,1.45,0,0,0,0,0,0v10.71c0,.8-.64,1.45-1.44,1.45h0" style="fill:#2a2f51;"/><path id="Path_1541" d="m109.45,364.4l-40.96,7.22c-.78.13-1.52-.4-1.66-1.18l-1.86-10.55c-.14-.79.39-1.54,1.18-1.69h0s40.96-7.22,40.96-7.22c.79-.14,1.54.39,1.69,1.18,0,0,0,0,0,0l1.86,10.55c.14.79-.39,1.54-1.18,1.69h0" style="fill:#2a2f51;"/><path id="Path_1542" d="m437.63,306.53l-40.96,7.22c-.79.14-1.54-.39-1.69-1.18h0s-1.86-10.55-1.86-10.55c-.14-.79.39-1.54,1.18-1.69h0s40.98-7.25,40.98-7.25c.79-.14,1.54.39,1.69,1.18h0s1.86,10.55,1.86,10.55c.14.79-.39,1.54-1.18,1.69h0" style="fill:#2a2f51;"/><path id="Path_1543" d="m117.17,388.65l-39.06,14.22c-.75.26-1.58-.13-1.86-.87l-3.66-10.07c-.26-.75.13-1.58.87-1.86l39.06-14.22c.75-.26,1.58.13,1.86.87l3.66,10.07c.26.75-.13,1.58-.87,1.86" style="fill:#2a2f51;"/><path id="Path_1544" d="m430.34,274.66l-39.08,14.22c-.75.27-1.58-.12-1.86-.87l-3.68-10.07c-.26-.75.13-1.58.87-1.86l39.09-14.25c.75-.27,1.58.12,1.86.87l3.66,10.07c.26.75-.12,1.58-.87,1.86" style="fill:#2a2f51;"/><path id="Path_1545" d="m129,411.19l-36.02,20.79c-.7.38-1.57.14-1.98-.53l-5.38-9.27c-.38-.7-.14-1.57.53-1.98l36.02-20.79c.7-.38,1.57-.14,1.98.53l5.35,9.27c.4.69.16,1.58-.53,1.98" style="fill:#2a2f51;"/><path id="Path_1546" d="m417.61,244.56l-36.02,20.79c-.7.38-1.57.14-1.98-.53l-5.35-9.27c-.4-.69-.16-1.58.53-1.98l36.02-20.79c.69-.4,1.58-.16,1.98.53l5.35,9.27c.4.69.16,1.58-.53,1.98" style="fill:#2a2f51;"/><path id="Path_1547" d="m144.55,431.35l-31.85,26.7c-.61.52-1.53.44-2.04-.17,0,0,0,0,0,0l-6.89-8.2c-.51-.62-.43-1.53.18-2.06l31.85-26.73c.61-.52,1.53-.44,2.05.17h0s6.88,8.21,6.88,8.21c.52.61.44,1.53-.17,2.05h0" style="fill:#2a2f51;"/><path id="Path_1548" d="m399.84,217.11l-31.85,26.73c-.61.52-1.53.44-2.05-.17h0s-6.88-8.21-6.88-8.21c-.52-.61-.44-1.53.17-2.05,0,0,0,0,.01,0l31.85-26.73c.62-.5,1.53-.42,2.05.18l6.88,8.2c.52.61.44,1.53-.17,2.05h0" style="fill:#2a2f51;"/><path id="Path_1549" d="m163.37,448.47l-26.73,31.86c-.52.62-1.43.7-2.05.18h0s-8.21-6.89-8.21-6.89c-.62-.52-.7-1.43-.18-2.05h0s26.73-31.86,26.73-31.86c.52-.6,1.43-.68,2.05-.18l8.21,6.89c.6.52.68,1.43.18,2.05" style="fill:#2a2f51;"/><path id="Path_1550" d="m377.59,193.17l-26.75,31.85c-.52.62-1.43.7-2.05.18h0s-8.21-6.89-8.21-6.89c-.62-.52-.7-1.43-.18-2.05h0s26.75-31.86,26.75-31.86c.52-.61,1.43-.69,2.05-.18l8.21,6.89c.6.52.68,1.43.18,2.05" style="fill:#2a2f51;"/><path id="Path_1551" d="m184.87,462.08l-20.79,36.02c-.4.69-1.29.93-1.98.53l-9.28-5.34c-.68-.41-.91-1.28-.53-1.98l20.79-36.02c.4-.69,1.28-.93,1.98-.53l9.27,5.35c.69.4.93,1.28.53,1.98" style="fill:#2a2f51;"/><path id="Path_1552" d="m351.5,173.46l-20.79,36.02c-.4.69-1.29.93-1.98.53l-9.28-5.35c-.68-.41-.91-1.28-.53-1.98l20.77-36.03c.4-.69,1.28-.93,1.98-.53l9.27,5.35c.69.4.93,1.28.53,1.98" style="fill:#2a2f51;"/><path id="Path_1553" d="m208.41,471.74l-14.22,39.08c-.29.74-1.11,1.13-1.86.87l-10.06-3.66c-.75-.27-1.15-1.11-.87-1.86,0,0,0,0,0,0l14.22-39.06c.27-.75,1.11-1.15,1.86-.87h0s10.06,3.67,10.06,3.67c.75.27,1.14,1.11.87,1.86,0,0,0,0,0,0" style="fill:#2a2f51;"/><path id="Path_1554" d="m322.39,158.58l-14.22,39.08c-.29.74-1.11,1.13-1.87.87l-10.06-3.66c-.75-.29-1.13-1.11-.87-1.87l14.22-39.06c.29-.75,1.11-1.13,1.87-.87l10.06,3.66c.75.27,1.14,1.11.87,1.86,0,0,0,0,0,0" style="fill:#2a2f51;"/><path id="Path_1555" d="m233.27,477.18l-7.22,40.96c-.14.79-.89,1.32-1.68,1.18,0,0,0,0-.01,0l-10.55-1.85c-.78-.15-1.31-.9-1.18-1.69l7.22-40.95c.14-.79.89-1.32,1.68-1.19,0,0,0,0,0,0l10.55,1.85c.79.15,1.31.9,1.19,1.69" style="fill:#2a2f51;"/><path id="Path_1556" d="m291.14,148.98l-7.22,40.96c-.14.79-.89,1.32-1.68,1.18,0,0,0,0-.01,0l-10.55-1.85c-.79-.15-1.31-.9-1.19-1.69l7.23-40.95c.13-.79.88-1.32,1.67-1.18,0,0,0,0,.01,0l10.54,1.85c.79.15,1.31.9,1.19,1.69" style="fill:#2a2f51;"/><path id="Path_1557" d="m219.86,189.93l-7.22-40.96c-.14-.79.39-1.54,1.18-1.69,0,0,0,0,0,0l10.55-1.86c.79-.14,1.54.39,1.69,1.18,0,0,0,0,0,0l7.22,40.96c.14.79-.39,1.54-1.18,1.69,0,0,0,0,0,0l-10.55,1.86c-.79.14-1.54-.39-1.69-1.18,0,0,0,0,0,0" style="fill:#2a2f51;"/><path id="Path_1558" d="m277.72,518.14l-7.22-40.96c-.12-.79.4-1.53,1.18-1.69l10.55-1.86c.79-.14,1.54.39,1.69,1.18h0s7.22,40.96,7.22,40.96c.14.79-.39,1.54-1.18,1.68l-10.55,1.86c-.79.12-1.54-.4-1.69-1.19" style="fill:#2a2f51;"/><path id="Path_1559" d="m195.61,197.65l-14.22-39.06c-.26-.75.13-1.58.87-1.86l10.07-3.66c.75-.26,1.58.13,1.86.87l14.22,39.06c.26.75-.13,1.58-.87,1.86l-10.07,3.66c-.75.26-1.58-.13-1.86-.87" style="fill:#2a2f51;"/><path id="Path_1560" d="m309.59,510.82l-14.22-39.06c-.26-.75.13-1.58.87-1.86l10.07-3.66c.75-.27,1.58.11,1.86.87l14.22,39.08c.27.75-.12,1.58-.87,1.86l-10.06,3.67c-.76.26-1.58-.12-1.87-.87" style="fill:#2a2f51;"/><path id="Path_1561" d="m173.07,209.47l-20.79-36.02c-.38-.7-.14-1.57.53-1.98l9.28-5.35c.69-.4,1.58-.16,1.98.53l20.79,36.02c.38.7.14,1.57-.53,1.98l-9.27,5.35c-.69.4-1.58.16-1.98-.53" style="fill:#2a2f51;"/><path id="Path_1562" d="m339.69,498.1l-20.76-36.02c-.38-.7-.14-1.57.53-1.98l9.27-5.35c.7-.38,1.57-.14,1.98.53l20.79,36.02c.38.7.14,1.57-.53,1.98l-9.3,5.35c-.69.4-1.58.16-1.98-.53" style="fill:#2a2f51;"/><path id="Path_1563" d="m152.93,225.03l-26.73-31.86c-.52-.61-.44-1.53.17-2.04,0,0,0,0,0,0l8.2-6.89c.62-.51,1.53-.43,2.06.18l26.73,31.85c.5.62.42,1.53-.18,2.05l-8.18,6.89c-.61.52-1.53.44-2.05-.17h0" style="fill:#2a2f51;"/><path id="Path_1564" d="m367.16,480.32l-26.73-31.85c-.52-.61-.44-1.53.17-2.05h0s8.2-6.89,8.2-6.89c.61-.52,1.53-.44,2.05.17,0,0,0,0,0,0l26.73,31.85c.5.62.42,1.53-.18,2.05l-8.2,6.89c-.61.52-1.53.44-2.05-.17h0" style="fill:#2a2f51;"/><path id="Path_1565" d="m135.79,243.84l-31.86-26.73c-.62-.52-.7-1.43-.18-2.05,0,0,0,0,0,0l6.88-8.21c.52-.62,1.43-.7,2.05-.18,0,0,0,0,0,0l31.86,26.73c.61.52.69,1.43.18,2.05l-6.88,8.21c-.52.6-1.43.68-2.05.18" style="fill:#2a2f51;"/><path id="Path_1566" d="m391.09,458.04l-31.84-26.7c-.62-.52-.7-1.43-.18-2.05h0s6.88-8.21,6.88-8.21c.52-.62,1.43-.7,2.05-.18h0s31.86,26.73,31.86,26.73c.6.53.68,1.44.18,2.06l-6.89,8.21c-.52.62-1.43.7-2.05.18h0" style="fill:#2a2f51;"/><path id="Path_1567" d="m122.18,265.35l-36.02-20.79c-.69-.4-.93-1.28-.53-1.98l5.35-9.28c.41-.68,1.28-.91,1.98-.53l36.02,20.79c.68.41.91,1.28.53,1.98l-5.33,9.28c-.41.68-1.28.91-1.98.53" style="fill:#2a2f51;"/><path id="Path_1568" d="m410.8,431.98l-36.02-20.79c-.69-.4-.93-1.28-.53-1.98l5.35-9.28c.41-.68,1.28-.91,1.98-.53l36.02,20.79c.69.4.93,1.28.53,1.98l-5.35,9.28c-.41.68-1.28.91-1.98.53" style="fill:#2a2f51;"/><path id="Path_1569" d="m112.51,288.88l-39.06-14.22c-.75-.28-1.14-1.11-.87-1.86l3.66-10.06c.28-.74,1.09-1.14,1.84-.89l39.06,14.22c.75.27,1.14,1.11.87,1.86,0,0,0,0,0,0l-3.66,10.07c-.27.75-1.1,1.14-1.85.87,0,0,0,0-.01,0" style="fill:#2a2f51;"/><path id="Path_1570" d="m425.69,402.87l-39.06-14.22c-.74-.29-1.13-1.11-.87-1.86l3.66-10.07c.29-.74,1.11-1.13,1.87-.87l39.06,14.22c.75.28,1.14,1.11.87,1.86,0,0,0,0,0,0l-3.66,10.06c-.27.75-1.11,1.14-1.86.87,0,0,0,0,0,0" style="fill:#2a2f51;"/><path id="Path_1571" d="m107.08,313.75l-40.96-7.22c-.79-.14-1.32-.89-1.18-1.68,0,0,0,0,0-.01l1.88-10.55c.14-.78.88-1.32,1.67-1.21l40.95,7.22c.79.14,1.32.89,1.18,1.68,0,0,0,0,0,0l-1.85,10.55c-.15.79-.9,1.31-1.69,1.19" style="fill:#2a2f51;"/><path id="Path_1572" d="m435.28,371.62l-40.95-7.22c-.79-.14-1.32-.89-1.18-1.68,0,0,0,0,0-.01l1.85-10.55c.15-.78.9-1.31,1.69-1.18l40.95,7.22c.79.14,1.32.89,1.19,1.68h0s-1.85,10.55-1.85,10.55c-.15.79-.9,1.31-1.69,1.18" style="fill:#2a2f51;"/><path id="Path_1573" d="m246.54,98.99h10.71c.8.01,1.44.66,1.46,1.45v86.08c-.01.8-.66,1.45-1.46,1.46h-10.71c-.8,0-1.45-.65-1.45-1.45h0v-86.09c0-.8.65-1.45,1.45-1.45" style="fill:#2a2f51;"/><path id="Path_1574" d="m246.54,476.76h10.71c.8.01,1.44.66,1.46,1.45v86.05c-.02.8-.66,1.44-1.46,1.45h-10.71c-.8,0-1.45-.64-1.45-1.44,0,0,0,0,0,0v-86.06c.02-.8.66-1.44,1.45-1.45" style="fill:#2a2f51;"/><path id="Path_1575" d="m272.68,132.59h-41.58c-.81,0-1.47-.65-1.48-1.45v-10.69c.01-.81.67-1.46,1.48-1.46h41.58c.8,0,1.45.64,1.45,1.44,0,0,0,0,0,.01v10.71c0,.8-.64,1.45-1.44,1.45,0,0,0,0,0,0" style="fill:#2a2f51;"/><path id="Path_1576" d="m302.26,283.95c-4.88,0-9.77.02-14.65.07-9.73.15-19.24,2.96-27.49,8.14-1.54.94-3.03,1.98-4.5,3.01-.7.49-1.4.99-2.1,1.44-.5.39-1.09.66-1.71.77-.51-.05-.99-.26-1.36-.61l-2.17-1.59c-9.68-7.31-21.49-11.25-33.62-11.22h-15.96c-4.1,0-8.2,0-12.36-.04-.8-.02-1.47.62-1.48,1.42,0,0,0,.01,0,.02.05,28.11.06,57.35,0,86.93,0,.8.64,1.45,1.44,1.45.01,0,.03,0,.04,0,5.1-.04,10.21-.07,15.33-.07,4.35,0,8.71.02,13.07.07,13.98-.08,27.19,6.42,35.67,17.54.45.31.99.46,1.54.42.56.05,1.11-.11,1.56-.44,8.6-11.22,21.99-17.72,36.13-17.54h27.81c.81,0,1.47-.65,1.48-1.46v-86.84c-.01-.8-.66-1.45-1.46-1.46h-15.2Zm-56.87,88.44c-8.96-5.94-19.47-9.12-30.22-9.15h-15.22c-.34,0-2.29-.04-3.68-.06-.79-.03-1.42-.67-1.43-1.46v-65.79c0-.8.64-1.45,1.43-1.45,0,0,.02,0,.02,0l10.53.07c5.11-.08,10.22.15,15.3.71,9.53,1.26,18.32,5.83,24.83,12.9v65.13l-.06-.03c-.54-.29-1.04-.56-1.51-.87m61.51-9.35l-1.98.12c-.79.04-2.08.08-2.88.08h-13.36c-10.63.03-21.02,3.15-29.92,8.98l-2.01,1.26v-65.02c8.35-8.91,20.01-13.97,32.22-14,1.84-.04,3.68-.06,5.52-.06,1.67,0,3.33,0,5,.03h3.99c.49,0,1.02.04,1.58.1l1.86.15c.75.07,1.33.7,1.34,1.45v65.43c-.01.77-.61,1.39-1.37,1.45" style="fill:#2a2f51;"/><path id="Path_1577" d="m24.91,752.12c5.95-.05,11.83,1.35,17.12,4.07l-3.35,8.51c-4.34-1.54-8.9-2.36-13.5-2.45-5.34,0-10.78,1.54-10.78,6.98,0,4.8,4.62,6.7,10.69,9.06,9.6,3.8,18.66,7.51,18.66,18.66,0,12.14-10.23,18.39-23.46,18.39-7.11.04-14.1-1.77-20.29-5.25l3.9-8.7c5,2.43,10.47,3.73,16.03,3.81,6.07,0,11.24-2.08,11.24-7.25s-4.98-6.98-11.42-9.32c-8.7-3.46-17.85-7.07-17.85-18.29,0-12.41,10.69-18.21,23.01-18.21" style="fill:#fff;"/><path id="Path_1578" d="m110.62,753.39l-.45,9.89h-17.66v50.82h-12.13v-50.82h-17.67l-.37-9.89h48.28Z" style="fill:#fff;"/><path id="Path_1579" d="m193.15,803.39c2.4-1.61,3.8-4.35,3.71-7.24,0-5.7-3.9-8.9-13.4-8.9-1.63,0-3.9,0-6.25.08v17.78c2.54.18,4.8.27,6.7.27,3.21.33,6.44-.36,9.24-1.98m-2.81-26.54c2.3-1.51,3.63-4.14,3.46-6.89,0-5.52-3.71-7.88-10.88-7.88-1.91,0-3.81.11-5.71.36v15.86c2.45,0,4.26.09,5.8.09,2.54.23,5.1-.3,7.34-1.54m-7.61-24.36c14.83,0,23.19,5.16,23.19,15.04.16,5.92-3.17,11.38-8.51,13.94,7.16,1.21,12.27,7.61,11.87,14.86,0,11.69-9.05,18.75-26.45,18.75-5.88-.11-11.75-.56-17.58-1.36v-59.9c5.79-.85,11.63-1.31,17.48-1.35" style="fill:#fff;"/><path id="Path_1580" d="m270.6,753.39l-.45,9.78h-25.27v15.13h20.02v9.69h-20.02v16.31h25.55l.45,9.79h-38.14v-60.71h37.86Z" style="fill:#fff;"/><path id="Path_1581" d="m323.1,802.21c5.76-4.49,8.91-11.55,8.4-18.84-.09-12.68-6.17-20.84-17.58-20.84-2.6-.01-5.2.11-7.79.37v41.74c2.08.18,4.35.28,6.7.28,3.61.12,7.17-.82,10.23-2.72m-8.96-49.82c19.2,0,29.98,12.5,29.98,30.44,0,18.93-11.96,32.24-31.43,32.24-6.24-.02-12.48-.48-18.66-1.36v-59.87c6.66-.94,13.38-1.42,20.11-1.45" style="fill:#fff;"/><path id="Path_1582" d="m405.48,753.39l-.45,9.78h-25.27v15.13h20.02v9.69h-20.02v16.31h25.55l.45,9.79h-38.13v-60.71h37.87Z" style="fill:#fff;"/><path id="Path_1583" d="m438.85,743.16l-.72,25.36h-8.97l-.82-25.36h10.51Z" style="fill:#fff;"/><path id="Path_1584" d="m484.93,752.12c5.95-.05,11.83,1.35,17.12,4.07l-3.35,8.51c-4.34-1.54-8.89-2.36-13.49-2.45-5.34,0-10.78,1.54-10.78,6.98,0,4.8,4.62,6.7,10.69,9.06,9.6,3.8,18.66,7.51,18.66,18.66,0,12.14-10.23,18.39-23.45,18.39-7.1.03-14.08-1.77-20.27-5.25l3.9-8.7c5,2.43,10.47,3.73,16.03,3.81,6.07,0,11.23-2.08,11.23-7.25s-4.98-6.98-11.41-9.32c-8.7-3.46-17.85-7.07-17.85-18.29,0-12.41,10.69-18.21,23.01-18.21" style="fill:#fff;"/><path id="Path_1585" d="m14.8,846.49c3.05-.02,6.05.78,8.68,2.32l-1.95,4.08c-2.07-1.16-4.4-1.77-6.78-1.76-2.24-.09-4.42.75-6.02,2.33-2.32,2.71-3.5,6.22-3.29,9.78,0,5.79,2.27,11.44,9.48,11.44,2.46-.03,4.89-.55,7.13-1.55l1.42,4.03c-2.88,1.41-6.04,2.14-9.25,2.14-9.28,0-14.23-6.73-14.23-15.68s4.6-17.13,14.8-17.13" style="fill:#fff;"/><path id="Path_1586" d="m43.06,866.41h8.44l-2.15-6.74-1.8-6.5h-.18l-4.31,13.23Zm7.35-19.49l9.44,29.31c.3.83.49,1.69.57,2.57h-4.98l-2.51-7.97h-11.29l-2.61,7.97h-5.12c.14-.85.35-1.69.62-2.51l10.01-29.17,5.88-.19Z" style="fill:#fff;"/><path id="Path_1587" d="m91.29,847.01l-.14,4.45h-9.63v27.32h-5.17v-27.32h-9.67l-.14-4.45h24.75Z" style="fill:#fff;"/><path id="Path_1588" d="m127.32,847.01v31.77h-5.17v-13.94h-13.7v13.94h-5.22v-31.77h5.22v13.38h13.7v-13.38h5.17Z" style="fill:#fff;"/><path id="Path_1589" d="m154.66,851c-1.75-.06-3.45.53-4.79,1.66-2.65,2.75-4.04,6.47-3.84,10.29,0,6.45,2.97,11.87,8.73,11.87,1.74.07,3.43-.53,4.74-1.67,2.66-2.74,4.04-6.48,3.8-10.29,0-6.43-2.97-11.87-8.63-11.87m.23-4.65c8.96,0,13.84,7.25,13.84,16.08s-4.6,17.03-14.23,17.03c-9.01,0-13.89-7.26-13.89-16.08s4.6-17.03,14.27-17.03" style="fill:#fff;"/><path id="Path_1590" d="m187.25,847.01v27.32h12.68l.19,4.45h-18.08v-31.77h5.22Z" style="fill:#fff;"/><rect id="Rectangle_344" x="212.01" y="847.01" width="5.22" height="31.77" style="fill:#fff;"/><path id="Path_1591" d="m245.28,846.49c3.05-.02,6.05.78,8.68,2.32l-1.95,4.08c-2.07-1.16-4.4-1.77-6.78-1.76-2.24-.09-4.42.75-6.02,2.33-2.32,2.71-3.49,6.22-3.27,9.78,0,5.79,2.27,11.44,9.48,11.44,2.45-.03,4.87-.55,7.11-1.55l1.42,4.03c-2.88,1.41-6.04,2.14-9.25,2.14-9.29,0-14.23-6.74-14.23-15.69s4.6-17.13,14.8-17.13" style="fill:#fff;"/><path id="Path_1592" d="m297.04,846.49c3.05-.02,6.05.78,8.68,2.32l-1.95,4.08c-2.07-1.16-4.4-1.77-6.78-1.76-2.24-.09-4.42.75-6.02,2.33-2.32,2.71-3.49,6.22-3.28,9.78,0,5.79,2.27,11.44,9.48,11.44,2.45-.03,4.88-.55,7.12-1.55l1.42,4.03c-2.88,1.41-6.04,2.14-9.25,2.14-9.29,0-14.23-6.74-14.23-15.69s4.6-17.13,14.8-17.13" style="fill:#fff;"/><path id="Path_1593" d="m329.46,851c-1.75-.06-3.46.53-4.8,1.66-2.65,2.75-4.03,6.48-3.83,10.29,0,6.45,2.97,11.87,8.73,11.87,1.73.07,3.43-.53,4.74-1.67,2.66-2.74,4.04-6.48,3.8-10.29,0-6.43-2.94-11.87-8.63-11.87m.24-4.65c8.96,0,13.84,7.25,13.84,16.08s-4.6,17.03-14.23,17.03c-9.01,0-13.9-7.26-13.9-16.08s4.6-17.03,14.28-17.03" style="fill:#fff;"/><path id="Path_1594" d="m362.05,847.01v27.32h12.66l.19,4.45h-18.07v-31.77h5.22Z" style="fill:#fff;"/><path id="Path_1595" d="m392.02,847.01v27.32h12.68l.19,4.45h-18.08v-31.77h5.22Z" style="fill:#fff;"/><path id="Path_1596" d="m435.81,847.01l-.14,4.45h-13.66v8.82h10.96v4.45h-10.96v9.58h13.8l.19,4.45h-19.21l.05-31.77,18.97.03Z" style="fill:#fff;"/><path id="Path_1597" d="m461.65,846.49c3.03-.01,6.01.79,8.63,2.32l-1.95,4.08c-2.12-1.17-4.5-1.79-6.92-1.8-2.33-.08-4.58.82-6.21,2.47-2.45,2.59-3.7,6.08-3.46,9.63,0,5.77,2.32,11.47,9.68,11.47,1.4,0,2.8-.15,4.17-.47v-7.11h-6.26v-4.45h11.24v14.46c-2.99,1.45-6.26,2.21-9.58,2.22-7.78.38-14.39-5.61-14.77-13.39-.04-.76-.01-1.51.07-2.27,0-8.78,5.03-17.17,15.37-17.17" style="fill:#fff;"/><path id="Path_1598" d="m503.59,847.01l-.14,4.45h-13.66v8.82h10.96v4.45h-10.96v9.58h13.8l.19,4.45h-19.2l.05-31.77,18.96.03Z" style="fill:#fff;"/><path id="Path_1599" d="m8.44,3.04c2.01-.02,4,.46,5.79,1.38l-1.13,2.88c-1.47-.52-3.01-.8-4.57-.83-1.8,0-3.64.53-3.64,2.36,0,1.63,1.56,2.27,3.62,3.07,3.25,1.29,6.33,2.55,6.33,6.32,0,4.11-3.46,6.23-7.94,6.23-2.41.02-4.79-.6-6.89-1.78l1.32-2.97c1.7.82,3.55,1.26,5.44,1.29,2.06,0,3.8-.71,3.8-2.47s-1.69-2.36-3.87-3.15c-2.95-1.13-6.04-2.35-6.04-6.16,0-4.2,3.62-6.17,7.79-6.17" style="fill:#fff;"/><path id="Path_1600" d="m39.11,3.46v20.55h-4.08v-8.77h-8.09v8.77h-4.11V3.46h4.11v8.43h8.09V3.46h4.08Z" style="fill:#fff;"/><rect id="Rectangle_345" x="48.38" y="3.47" width="4.11" height="20.54" style="fill:#fff;"/><path id="Path_1601" d="m66.2,3.46l6.92,11.9,1.63,3.46h.06l-.19-3.87V3.46h3.65v20.55h-4.45l-7.06-12.07-1.53-3.22h-.06l.15,3.5v11.8h-3.62V3.46h4.5Z" style="fill:#fff;"/><path id="Path_1602" d="m100.38,3.46l-.15,3.31h-8.55v5.12h6.77v3.28h-6.77v5.52h8.65l.15,3.31h-12.91V3.46h12.81Z" style="fill:#fff;"/><path id="Path_1603" d="m145.65,3.46c-.19.99-.46,1.97-.8,2.92l-5.05,17.57-4.94.12-2.61-12.66-.52-3.53h-.12l-3.44,16.07-4.94.12-4.72-17.8c-.29-.91-.5-1.85-.64-2.79h4.15l3,12.11.74,4.07h.12l3.4-16.2h5.12l2.55,12.11.59,4.07h.15l3.92-16.19h4.05Z" style="fill:#fff;"/><rect id="Rectangle_346" x="153.03" y="3.47" width="4.11" height="20.54" style="fill:#fff;"/><path id="Path_1604" d="m180.89,3.46l-.15,3.34h-5.98v17.2h-4.11V6.8h-5.98l-.11-3.34h16.34Z" style="fill:#fff;"/><path id="Path_1605" d="m204.6,3.46v20.55h-4.08v-8.77h-8.09v8.77h-4.11V3.46h4.11v8.43h8.09V3.46h4.08Z" style="fill:#fff;"/><path id="Path_1606" d="m233.61,3.12c2.01-.04,3.99.48,5.73,1.48l-1.44,3.01c-1.28-.67-2.7-1.01-4.14-.99-1.38-.06-2.72.45-3.71,1.41-1.38,1.63-2.09,3.73-1.98,5.86,0,3.53,1.41,6.97,5.83,6.97,1.5-.02,2.97-.32,4.36-.89l.99,3.01c-1.91.93-4.01,1.4-6.14,1.38-5.05.15-9.26-3.83-9.41-8.88-.01-.43,0-.87.05-1.3-.59-5.49,3.38-10.41,8.87-11,.32-.03.65-.05.98-.06" style="fill:#fff;"/><path id="Path_1607" d="m263.15,3.46v20.55h-4.08v-8.77h-8.1v8.77h-4.1V3.46h4.1v8.43h8.09V3.46h4.09Z" style="fill:#fff;"/><path id="Path_1608" d="m281.06,12.78c1.16-.55,1.86-1.75,1.78-3.04,0-2.15-1.44-3.19-4.21-3.19-.71,0-1.41.04-2.12.12v6.59c.49.03,1.04.06,1.48.06,1.04.05,2.08-.14,3.04-.55m-2.73-9.67c5.3,0,8.8,2.06,8.8,6.25.06,2.62-1.42,5.03-3.77,6.17l3.59,6.37c.39.66.69,1.37.89,2.12h-4.2l-4.02-7.47c-.43.03-.86.05-1.29.05s-1.14-.03-1.78-.09v7.48h-4.11V3.62c1.95-.31,3.92-.47,5.89-.49" style="fill:#fff;"/><rect id="Rectangle_347" x="295.62" y="3.47" width="4.11" height="20.54" style="fill:#fff;"/><path id="Path_1609" d="m315.93,3.04c2.01-.02,4,.46,5.79,1.38l-1.13,2.88c-1.47-.52-3.02-.8-4.58-.83-1.8,0-3.64.53-3.64,2.36,0,1.63,1.56,2.27,3.62,3.07,3.25,1.29,6.31,2.55,6.31,6.31,0,4.11-3.46,6.23-7.94,6.23-2.4.01-4.77-.6-6.87-1.78l1.32-2.97c1.7.82,3.55,1.26,5.44,1.29,2.06,0,3.8-.71,3.8-2.47s-1.69-2.36-3.86-3.15c-2.97-1.17-6.04-2.39-6.04-6.2,0-4.2,3.62-6.17,7.79-6.17" style="fill:#fff;"/><path id="Path_1610" d="m345.17,3.46l-.15,3.34h-5.97v17.2h-4.11V6.8h-5.99l-.11-3.34h16.34Z" style="fill:#fff;"/><path id="Path_1611" d="m352.42,0l.28,8.58h3.04l.24-8.58h-3.55Z" style="fill:#fff;"/><path id="Path_1612" d="m371.81,3.04c2.01-.02,4,.46,5.79,1.38l-1.13,2.88c-1.47-.52-3.02-.8-4.58-.83-1.8,0-3.64.53-3.64,2.36,0,1.63,1.56,2.27,3.62,3.07,3.25,1.29,6.31,2.55,6.31,6.31,0,4.11-3.46,6.23-7.94,6.23-2.4.01-4.77-.6-6.87-1.78l1.32-2.97c1.7.82,3.55,1.26,5.44,1.29,2.06,0,3.8-.71,3.8-2.47s-1.69-2.36-3.86-3.15c-2.97-1.17-6.04-2.39-6.04-6.2,0-4.2,3.62-6.17,7.79-6.17" style="fill:#fff;"/><path id="Path_1613" d="m406.4,3.12c2.03-.01,4.04.52,5.79,1.54l-1.44,2.97c-1.37-.68-2.89-1.03-4.42-1.04-1.43-.07-2.82.47-3.83,1.48-1.48,1.57-2.24,3.7-2.09,5.85,0,3.59,1.44,7,5.79,7,.77-.01,1.54-.08,2.3-.21v-6.88h3.8v9.07c-2.02.96-4.23,1.45-6.47,1.44-5.07.31-9.44-3.55-9.75-8.62-.03-.48-.02-.96.02-1.44-.52-5.62,3.62-10.59,9.24-11.11.34-.03.69-.05,1.04-.04" style="fill:#fff;"/><path id="Path_1614" d="m425.16,3.46v17.2h7.73l.18,3.35h-12.02V3.46h4.11Z" style="fill:#fff;"/><path id="Path_1615" d="m448.38,6.47c-1.05-.05-2.07.33-2.82,1.07-1.55,1.69-2.35,3.94-2.21,6.23,0,3.87,1.69,7.24,5.06,7.24,1.03.05,2.04-.33,2.79-1.04,1.54-1.72,2.32-3.99,2.18-6.29,0-3.93-1.66-7.21-5-7.21m.15-3.43c5.13.05,9.25,4.24,9.21,9.37,0,.35-.03.7-.07,1.05.63,5.4-3.23,10.29-8.62,10.92-.27.03-.55.05-.82.06-5.14-.05-9.27-4.25-9.23-9.39,0-.34.02-.69.07-1.03-.65-5.38,3.19-10.27,8.57-10.92.3-.04.6-.06.9-.07" style="fill:#fff;"/><path id="Path_1616" d="m474.56,12.78c1.16-.55,1.86-1.75,1.78-3.04,0-2.15-1.44-3.19-4.21-3.19-.71,0-1.41.04-2.12.12v6.59c.52.03,1.04.06,1.48.06,1.04.05,2.08-.14,3.04-.55m-2.73-9.67c5.3,0,8.8,2.06,8.8,6.25.06,2.62-1.42,5.03-3.77,6.17l3.59,6.35c.39.66.69,1.37.89,2.12h-4.2l-4.02-7.45c-.43.03-.86.05-1.29.05s-1.14-.03-1.78-.09v7.49h-4.11V3.62c1.95-.31,3.92-.47,5.89-.49" style="fill:#fff;"/><path id="Path_1617" d="m503.78,3.46c-.2.97-.59,1.9-1.14,2.73l-5.4,10v7.82h-4.08v-7.85l-5.31-9.97c-.54-.83-.92-1.76-1.13-2.73h4.32l3.04,6.04,1.26,2.82h.06l4.27-8.86h4.11Z" style="fill:#fff;"/></g></g></g></svg>